<?xml version="1.0" encoding="utf-8"?>
<svg fill="orange" version="1.1" xmlns="http://www.w3.org/2000/svg" xmlns:xlink="http://www.w3.org/1999/xlink" x="0px" y="0px"
	 viewBox="0 0 512 512" style="enable-background:new 0 0 512 512;" xml:space="preserve">
<path d="M197,3.1L197,3.1c3.5-4,9.3-4.1,13-0.3l159.7,167.3c3.6,3.8,3.8,10.2,0.3,14.1l0,0c-3.5,4-9.3,4.1-13,0.3L197.2,17.2
	C193.6,13.4,193.5,7.1,197,3.1z"/>
<rect x="186.3" y="24.2" width="22.4" height="253.5"/>
<rect x="169.1" y="48.6" width="27.5" height="217.8"/>
<rect x="151.8" y="78.6" width="32.7" height="170.9"/>
<rect x="143.2" y="101.2" width="36.1" height="135.2"/>
<rect x="124.3" y="129.3" width="31" height="93.9"/>
<rect x="100.2" y="163.1" width="44.7" height="45.1"/>
<rect x="91.6" y="181.9" width="13.8" height="15"/>
<rect x="112.3" y="148.1" width="17.2" height="22.5"/>
<rect x="134.6" y="121.8" width="15.5" height="22.5"/>
<rect x="139.8" y="112.4" width="12" height="20.7"/>
<rect x="114" y="196.9" width="49.9" height="20.7"/>
<rect x="124.3" y="211.9" width="48.2" height="18.8"/>
<rect x="160.4" y="242" width="12" height="11.3"/>
<path d="M409.4,229L207.1,351.3c-4.5,2.7-10.2,0.9-12.7-4l0,0c-2.5-4.9-0.9-11.1,3.6-13.8l202.4-122.3c4.5-2.7,10.2-0.9,12.7,4l0,0
	C415.6,220.1,413.9,226.3,409.4,229z"/>
<path d="M505.5,332L210.6,510.1c-4.2,2.5-9.4,0.9-11.7-3.7l0,0c-2.3-4.5-0.8-10.3,3.4-12.8l294.9-178.2c4.2-2.5,9.4-0.9,11.7,3.7
	l0,0C511.1,323.7,509.6,329.4,505.5,332z"/>
<path d="M496.1,329l-96.4-100.5c-3.8-3.9-3.9-10.4-0.3-14.5l0,0c3.6-4.1,9.5-4.2,13.3-0.3l96.4,100.5c3.8,3.9,3.9,10.4,0.3,14.5l0,0
	C505.8,332.8,499.9,332.9,496.1,329z"/>
<path d="M192.4,353.1L62.4,240.4c-4.3-3.8-5.1-10.6-1.6-15.4l0,0c3.4-4.7,9.8-5.5,14.1-1.8L204.9,336c4.3,3.8,5.1,10.6,1.6,15.4l0,0
	C203.1,356.1,196.8,356.9,192.4,353.1z"/>
<path d="M198.9,509.5L5.4,323.6c-3.9-3.7-4.2-10.1-0.8-14.4l0,0c3.4-4.2,9.3-4.6,13.2-0.9l193.5,185.9c3.9,3.7,4.2,10.1,0.8,14.4
	l0,0C208.7,512.8,202.8,513.2,198.9,509.5z"/>
<path d="M1.6,310l59.1-86.2c2.6-3.8,7.6-4.6,11.2-1.8l1.1,0.9c3.5,2.9,4.2,8.3,1.6,12.2l-59.1,86.2c-2.6,3.8-7.6,4.6-11.2,1.8
	l-1.1-0.9C-0.3,319.3-1,313.8,1.6,310z"/>
<polygon points="8.3,313.9 69.3,230.1 204.1,346.9 143.1,430.7 "/>
<path d="M83.5,197.7L83.5,197.7c-3.8-2.9-4.8-8.6-2.1-12.8L193.5,8.3c2.6-4.2,7.9-5.2,11.7-2.3l0,0c3.8,2.9,4.8,8.6,2.1,12.8
	L95.2,195.4C92.5,199.5,87.3,200.6,83.5,197.7z"/>
<path d="M203.5,291.1L203.5,291.1c-2.7,3.7-7.6,4.3-10.9,1.4l-110-95.3c-3.4-2.9-3.9-8.3-1.3-11.9l0,0c2.7-3.7,7.6-4.3,10.9-1.4
	l110,95.3C205.6,282.1,206.2,287.4,203.5,291.1z"/>
<path d="M204.8,294.1l166-104.6c4.5-2.9,6.1-9.2,3.5-14.1l0,0c-2.6-4.9-8.4-6.6-12.9-3.8l-166,104.6c-4.5,2.9-6.1,9.2-3.5,14.1l0,0
	C194.5,295.3,200.3,297,204.8,294.1z"/>
<rect x="181.1" y="343.4" width="27.5" height="148.3"/>
<rect x="143.2" y="375.3" width="43" height="41.3"/>
<rect x="127.8" y="405.3" width="58.5" height="30"/>
<rect x="146.7" y="424.1" width="36.1" height="24.4"/>
<rect x="162.2" y="442.9" width="24.1" height="24.4"/>
</svg>
